<svg xmlns="http://www.w3.org/2000/svg" width="256" height="256" viewBox="0 0 100 100"><rect width="100" height="100" rx="20" fill="#16a34a"></rect><path fill="#fff" d="M46.18 75.41L46.18 75.41Q41.51 75.41 37.74 73.67Q33.97 71.92 31.78 68.60Q29.59 65.28 29.59 60.45L29.59 60.45Q29.59 56.30 31.19 53.61Q32.79 50.93 35.51 49.36Q38.22 47.79 41.58 47.00Q44.93 46.20 48.42 45.78L48.42 45.78Q52.83 45.27 55.58 44.93Q58.33 44.60 59.57 43.83Q60.82 43.06 60.82 41.34L60.82 41.34L60.82 41.12Q60.82 36.93 58.47 34.63Q56.12 32.33 51.49 32.33L51.49 32.33Q46.66 32.33 43.90 34.45Q41.13 36.58 40.08 39.17L40.08 39.17L31.10 37.12Q32.69 32.65 35.78 29.88Q38.86 27.12 42.89 25.85Q46.92 24.59 51.36 24.59L51.36 24.59Q54.30 24.59 57.61 25.28Q60.91 25.97 63.81 27.79Q66.70 29.61 68.55 32.98Q70.41 36.35 70.41 41.72L70.41 41.72L70.41 74.32L61.07 74.32L61.07 67.61L60.69 67.61Q59.76 69.46 57.91 71.25Q56.06 73.04 53.15 74.23Q50.24 75.41 46.18 75.41ZM48.26 67.74L48.26 67.74Q52.22 67.74 55.05 66.17Q57.88 64.61 59.36 62.06Q60.85 59.52 60.85 56.62L60.85 56.62L60.85 50.29Q60.34 50.80 58.88 51.23Q57.43 51.66 55.58 51.97Q53.72 52.27 51.97 52.51Q50.21 52.75 49.03 52.91L49.03 52.91Q46.24 53.26 43.96 54.09Q41.67 54.92 40.32 56.47Q38.96 58.02 38.96 60.58L38.96 60.58Q38.96 64.13 41.58 65.93Q44.20 67.74 48.26 67.74Z"></path></svg>